<?xml version="1.0" encoding="UTF-8"?>
<svg id="Calque_1" data-name="Calque 1" xmlns="http://www.w3.org/2000/svg" xmlns:xlink="http://www.w3.org/1999/xlink" viewBox="0 0 627.64551 169.17969">
  <defs>
    <style>
      .cls-1 {
        fill: url(#Dégradé_sans_nom_255);
      }

      .cls-2 {
        fill: url(#Dégradé_sans_nom_211-4);
      }

      .cls-3 {
        fill: url(#Dégradé_sans_nom_211);
      }

      .cls-4 {
        fill: url(#Dégradé_sans_nom_244-4);
      }

      .cls-5 {
        fill: url(#Dégradé_sans_nom_656);
      }

      .cls-6 {
        fill: url(#Dégradé_sans_nom_244-5);
      }

      .cls-7 {
        fill: url(#Dégradé_sans_nom_247);
      }

      .cls-8 {
        fill: url(#Dégradé_sans_nom_211-2);
      }

      .cls-9 {
        fill: url(#Dégradé_sans_nom_244);
      }

      .cls-10 {
        fill: url(#Dégradé_sans_nom_656-2);
      }

      .cls-11 {
        fill: url(#Dégradé_sans_nom_244-3);
      }

      .cls-12 {
        fill: #0f0f0f;
        opacity: .46;
      }

      .cls-13 {
        fill: url(#Dégradé_sans_nom_244-2);
      }

      .cls-14 {
        fill: url(#Dégradé_sans_nom_211-3);
      }
    </style>
    <linearGradient id="Dégradé_sans_nom_244" data-name="Dégradé sans nom 244" x1="0" y1="86.78955" x2="95.7002" y2="86.78955" gradientUnits="userSpaceOnUse">
      <stop offset="0" stop-color="#57a0ff"/>
      <stop offset=".18689" stop-color="#4b9bf6"/>
      <stop offset=".52119" stop-color="#2c8edf"/>
      <stop offset=".91955" stop-color="#007cbf"/>
    </linearGradient>
    <linearGradient id="Dégradé_sans_nom_255" data-name="Dégradé sans nom 255" x1="32.11932" y1="82.88034" x2="84.91931" y2="82.88034" gradientUnits="userSpaceOnUse">
      <stop offset="0" stop-color="#fdc921"/>
      <stop offset=".28488" stop-color="#fdbd19"/>
      <stop offset=".79269" stop-color="#fe9e05"/>
      <stop offset=".91955" stop-color="#ff9600"/>
    </linearGradient>
    <linearGradient id="Dégradé_sans_nom_244-2" data-name="Dégradé sans nom 244" x1="111.97705" y1="109.88965" x2="214.16699" y2="109.88965" xlink:href="#Dégradé_sans_nom_244"/>
    <linearGradient id="Dégradé_sans_nom_244-3" data-name="Dégradé sans nom 244" x1="342.2002" y1="84.58984" x2="449.4502" y2="84.58984" xlink:href="#Dégradé_sans_nom_244"/>
    <linearGradient id="Dégradé_sans_nom_244-4" data-name="Dégradé sans nom 244" x1="481.89935" y1="109.88531" x2="505.65936" y2="109.88531" xlink:href="#Dégradé_sans_nom_244"/>
    <linearGradient id="Dégradé_sans_nom_247" data-name="Dégradé sans nom 247" x1="479.25934" y1="19.85034" x2="508.29932" y2="19.85034" gradientUnits="userSpaceOnUse">
      <stop offset="0" stop-color="#fdc921"/>
      <stop offset=".28488" stop-color="#fdbd19"/>
      <stop offset=".79269" stop-color="#fe9e05"/>
      <stop offset=".91955" stop-color="#ff9600"/>
    </linearGradient>
    <linearGradient id="Dégradé_sans_nom_244-5" data-name="Dégradé sans nom 244" x1="532.38574" y1="109.94482" x2="627.64551" y2="109.94482" xlink:href="#Dégradé_sans_nom_244"/>
    <linearGradient id="Dégradé_sans_nom_211" data-name="Dégradé sans nom 211" x1="292.57935" y1="85.17462" x2="293.68579" y2="85.17462" gradientUnits="userSpaceOnUse">
      <stop offset="0" stop-color="#57a0ff"/>
      <stop offset=".18689" stop-color="#4b9bf6"/>
      <stop offset=".52119" stop-color="#2c8edf"/>
      <stop offset=".91955" stop-color="#007cbf"/>
    </linearGradient>
    <linearGradient id="Dégradé_sans_nom_211-2" data-name="Dégradé sans nom 211" x1="208.16437" y1="111.00665" x2="304.86752" y2="111.00665" xlink:href="#Dégradé_sans_nom_211"/>
    <linearGradient id="Dégradé_sans_nom_656" data-name="Dégradé sans nom 656" x1="255.6914" y1="163.44851" x2="307.54072" y2="73.64286" gradientUnits="userSpaceOnUse">
      <stop offset="0" stop-color="#fdc921"/>
      <stop offset=".27785" stop-color="#fdc61f"/>
      <stop offset=".43722" stop-color="#fdbe1a"/>
      <stop offset=".56665" stop-color="#fdb011"/>
      <stop offset=".67932" stop-color="#fe9c04"/>
      <stop offset=".70949" stop-color="#ff9600"/>
    </linearGradient>
    <linearGradient id="Dégradé_sans_nom_656-2" data-name="Dégradé sans nom 656" x1="250.16074" y1="82.77844" x2="250.95649" y2="81.40016" xlink:href="#Dégradé_sans_nom_656"/>
    <linearGradient id="Dégradé_sans_nom_211-3" data-name="Dégradé sans nom 211" x1="235.71343" y1="98.49841" x2="332.00571" y2="98.49841" xlink:href="#Dégradé_sans_nom_211"/>
    <linearGradient id="Dégradé_sans_nom_211-4" data-name="Dégradé sans nom 211" x1="246.93872" y1="124.45193" x2="247.54932" y2="124.45193" xlink:href="#Dégradé_sans_nom_211"/>
  </defs>
  <g>
    <path class="cls-9" d="M0,166.75977V6.81934H92.3999V24.5293H23.75977v124.52051H95.7002v17.70996H0Z"/>
    <path class="cls-1" d="M84.91931,74.24536v17.26996H32.11932c1.03003-2.85999,2.37-5.62,4.02002-8.29999,1.64996-2.67999,3.75-4.83997,6.32001-6.48999s5.71997-2.47998,9.45996-2.47998h33Z"/>
    <path class="cls-13" d="M111.97705,166.75977l33.87988-49.16992c1.98047,2.34766,3.63037,5.09766,4.9502,8.25,1.31982,3.1543,1.97998,6.47266,1.97998,9.95508,0,3.4834-1.02783,6.91309-3.08008,10.28516l-13.08984,20.67969h-24.64014Zm76.22998,0c-5.86768-9.45996-11.84375-18.88184-17.92969-28.26953-6.08789-9.38672-12.24805-18.77246-18.47998-28.16016l-37.84033-57.31055h26.3999l21.78027,37.29004,1.31982,4.62012,1.54004-4.62012,22.22021-37.29004h24.75l-37.3999,56.32031,39.59961,57.41992h-25.95996Z"/>
    <path class="cls-11" d="M391.15039,169.17969c-10.41406,0-19.26953-2.62109-26.56543-7.86523-7.29785-5.24219-12.85254-12.3916-16.66504-21.44922-3.81348-9.05664-5.71973-19.26758-5.71973-30.63574,0-8.50586,1.375-16.2793,4.125-23.31934s6.50684-13.12695,11.27441-18.26074c4.7666-5.13184,10.15625-9.11035,16.1709-11.93457,6.01172-2.82227,12.24609-4.23535,18.69922-4.23535,3.44629,0,7.00293,.25781,10.66992,.77051,3.66699,.51367,7.73633,1.54004,12.20996,3.08008-1.97949,3.95996-4.54688,7.20508-7.69922,9.73438-3.1543,2.53027-7.11426,3.83301-11.87988,3.90527-5.28027-.07227-10.10352,1.35742-14.46582,4.29004-4.36328,2.93359-7.86426,7.38867-10.50488,13.36523-2.63965,5.97754-3.95996,13.5127-3.95996,22.60449,0,8.06836,1.10059,15.29004,3.2998,21.66992,2.2002,6.37988,5.39062,11.4043,9.57031,15.07031,4.17969,3.66797,9.27637,5.5,15.29004,5.5,4.83984,0,9.57031-1.28223,14.19043-3.84961,4.62012-2.56641,9.20215-6.60059,13.75-12.10059V0h23.20996V131.88965c0,7.48047,.31055,14.09863,.93457,19.85547,.62207,5.75781,1.41113,10.7627,2.36523,15.01465h-17.16016c-1.75977-1.39258-3.22754-2.96973-4.40039-4.73047-1.17383-1.75977-2.27344-3.99609-3.2998-6.70996l-.66016-3.95996-2.19922,4.07031c-4.84082,5.13379-10.0293,8.70898-15.56543,10.72461-5.53809,2.0166-10.54297,3.02539-15.01465,3.02539Z"/>
    <path class="cls-4" d="M481.89935,53.01532v113.73999h23.76001V53.01532h-23.76001Z"/>
    <path class="cls-7" d="M508.29932,20.01532c0,4.11005-1.38,7.56-4.13,10.34003-2.75,2.78998-6.20996,4.17999-10.38995,4.17999-4.11005,0-7.56-1.39001-10.34003-4.17999-2.78998-2.78003-4.17999-6.22998-4.17999-10.34003,0-4.25,1.39001-7.78998,4.17999-10.60999,2.78003-2.82001,6.22998-4.23999,10.34003-4.23999,4.17999,0,7.63995,1.41998,10.38995,4.23999s4.13,6.35999,4.13,10.60999Z"/>
    <path class="cls-6" d="M568.57617,169.17969c-7.48047,0-13.93457-1.42969-19.36035-4.29004-5.42773-2.86035-9.58887-6.69141-12.48535-11.49512-2.89746-4.80176-4.34473-10.13672-4.34473-16.00488,0-7.04004,1.90625-13.07129,5.71973-18.09473,3.8125-5.02246,10.1377-9.14746,18.97559-12.375,8.83594-3.22656,20.84473-5.64648,36.02441-7.25977-.36719,2.19922-1.06348,4.58398-2.08984,7.14941-1.02734,2.56836-2.62305,4.85938-4.78516,6.875-2.16406,2.01758-5.0791,3.31934-8.74512,3.90527-5.64746,.87988-10.00977,2.2373-13.08984,4.07031-3.08008,1.83398-5.20801,3.95996-6.37988,6.37988-1.17383,2.41992-1.75977,4.9502-1.75977,7.58984,0,4.25391,1.54004,7.95801,4.62012,11.11035,3.08008,3.15332,7.14941,4.72949,12.20996,4.72949,4.76562,0,9.58691-1.30078,14.46484-3.90527,4.87598-2.60156,9.36719-6.54492,13.47461-11.82422v-39.05078c0-8.35938-2.1084-15.16113-6.32422-20.4043-4.21875-5.24219-11.01953-7.86523-20.40527-7.86523-3.8877,0-7.81055,.40332-11.77051,1.20996-3.95996,.80762-8.58008,2.16406-13.85938,4.07031l-5.7207-15.18066c7.04004-3.08008,13.49219-5.15039,19.36035-6.21484,5.86621-1.0625,11.29199-1.59473,16.28027-1.59473,14.44629,0,25.64648,4.10742,33.60449,12.31934,7.95605,8.21484,11.93555,19.83789,11.93555,34.87012v33.99023c0,7.48047,.33008,14.09863,.98926,19.85547,.66016,5.75781,1.50293,10.7627,2.53027,15.01465h-17.0498c-1.98047-1.17188-3.5752-2.76758-4.78516-4.78516-1.20996-2.01562-2.25488-4.125-3.13477-6.3252l-.33008-4.17969-2.53027,3.95996c-5.86719,5.71973-11.20215,9.44336-16.00488,11.16504-4.80373,1.72266-9.88281,2.58496-15.23438,2.58496Z"/>
  </g>
  <g>
    <path class="cls-12" d="M318.08297,98.17881c-.55561,.48445-1.10435,.98184-1.64619,1.49216,.05059-.04941,.10299-.09877,.15446-.14724,.48944-.46096,.9867-.90988,1.49172-1.34491Z"/>
    <path class="cls-3" d="M292.57935,84.53534c.38385,.41785,.75049,.84534,1.10645,1.27856-.36761-.42688-.72052-.86194-1.10645-1.27856Z"/>
    <path class="cls-8" d="M300.02936,136.49536c-.02002,.02997-.04004,.06995-.06,.09998-2.35004,4.70001-5.56,9.07001-9.61005,12.89001-6.29999,5.92999-13.82996,9.75-21.71997,11.47998-15.15002,3.32001-31.60004-1.08002-43.12-13.02002-.13-.13995-.27002-.26996-.40002-.41998-.13-.14001-.26001-.27997-.39001-.41998-23.10999-24.97998-21.90997-63.87,2.79004-87.13-12.08002,11.52997-16.54004,28.07001-13.21002,43.31,1.72998,7.88,5.54999,15.40997,11.48999,21.71002,3.84003,4.07996,8.25,7.29999,12.98004,9.66998,9.46997,4.71997,20.25995,6,30.45996,3.77997,.02002,0,.04999-.00995,.08002-.00995,7.54999-1.66003,14.78003-5.23004,20.91998-10.75,.12-.11005,.23999-.22003,.36005-.33002,.08997-.08002,.18994-.16998,.27997-.26001,.03003-.02002,.04999-.04999,.08002-.07001,.01996-.02997,.04999-.04999,.07001-.08002,.09998-.07996,.19-.16998,.28998-.25995,11.37189-10.98572,12.28442-28.80072,2.36646-40.87146,5.13867,5.96698,8.51709,12.90021,10.10352,20.15143,2.25,10.22003,.97003,21.03998-3.75995,30.53003Z"/>
    <path class="cls-5" d="M314.31934,148.74536c-.51001,.52997-1.03998,1.04999-1.58002,1.56-.02997,.01996-.06,.04999-.07996,.07001-24.70001,23.25995-63.59003,22.12994-87.14001-2.43005,11.51996,11.94,27.96997,16.34003,43.12,13.02002,7.89001-1.72998,15.41998-5.54999,21.71997-11.47998,4.05005-3.82001,7.26001-8.19,9.61005-12.89001,.01996-.03003,.03998-.07001,.06-.09998,4.72998-9.49005,6.00995-20.31,3.75995-30.53003-1.69995-7.77002-5.42999-15.19-11.20996-21.42999-.09003-.09998-.17999-.20001-.27002-.28998-.08997-.09003-.17999-.19-.27002-.28003-10.97998-11.37-28.79999-12.27997-40.87994-2.37,3.35999-2.89001,7.02997-5.22998,10.88995-7,.42004-.20001,.85004-.39001,1.29004-.57001,.38995-.16998,.79999-.33002,1.19995-.48999,1.04004-.40997,2.09003-.77002,3.16003-1.09003,.31-.09998,.60999-.19,.91998-.27997,.45001-.13,.90002-.25,1.35004-.35999,.44995-.12,.89996-.22003,1.34998-.32001,10.22998-2.23999,21.04999-.97003,30.53998,3.76996,4.74005,2.36005,9.15002,5.59003,12.99005,9.67004,5.79999,6.14996,9.57996,13.48999,11.35999,21.17999,.03998,.16998,.07996,.34998,.12,.52997,3.21997,14.71002-.83002,30.65002-12.01001,42.11005Z"/>
    <path class="cls-10" d="M249.88934,82.69531c.41669-.38214,.8429-.74725,1.27484-1.10168-.4256,.36615-.85931,.71741-1.27484,1.10168Z"/>
    <path class="cls-14" d="M314.31934,148.74536c11.17999-11.46002,15.22998-27.40002,12.01001-42.11005-.04004-.17999-.08002-.35999-.12-.52997-1.78003-7.69-5.56-15.03003-11.35999-21.17999-3.84003-4.08002-8.25-7.31-12.99005-9.67004-9.48999-4.73999-20.31-6.00995-30.53998-3.76996-7.76001,1.70001-15.17999,5.42999-21.42999,11.20996-.09003,.09003-.19,.18005-.28003,.27002-.02997,.02002-.04999,.04999-.07996,.07001-.02002,.02997-.05005,.04999-.07001,.08002-.10004,.07996-.19,.16998-.29004,.26001-.10999,.12-.22998,.22998-.33997,.33997l-.21002,.21002c-.06,.07001-.12,.13-.17999,.19l-.09998,.09998c-.02002,.02002-.04004,.04999-.07001,.07001-.07001,.08002-.14001,.15997-.21002,.22998-.02002,.02002-.02997,.04004-.04999,.04999-.03003,.03003-.04999,.06006-.08002,.09003-.01996,.02002-.03998,.03998-.06,.07001-.08997,.08997-.16998,.17999-.25,.27997-.08002,.08002-.15997,.17004-.23999,.26001-.02997,.04004-.07001,.09003-.10999,.13-.04004,.04999-.08002,.09003-.10999,.13-.08002,.09003-.15002,.17999-.23004,.27002,0,.01001-.01001,.01001-.01001,.01996l-.17999,.21002c-.01996,.03003-.03998,.04999-.06,.07001-.04999,.07001-.09998,.13-.14996,.20001-.07001,.08997-.14001,.16998-.21002,.26001v.00995c-.07001,.09003-.14001,.18005-.21002,.27002-.06,.07001-.10999,.15002-.16998,.22003-.02002,.03998-.04999,.07001-.08002,.10999-.01996,.02997-.03998,.04999-.06,.08002-.02997,.03998-.06,.08997-.09998,.13995-.03998,.06-.08002,.11005-.12,.17004-.04004,.06-.08002,.10999-.12,.16998-.07001,.08997-.13,.19-.20001,.27997-.09003,.13-.16998,.26001-.26001,.40002-.01001,.01001-.02002,.02002-.02002,.03003-.04999,.06995-.08997,.13995-.13995,.20996-.05005,.07001-.09003,.15002-.14001,.22003-.03003,.04999-.06,.08997-.09003,.13995-.01996,.03003-.03998,.06-.04999,.09003-.06,.08002-.10999,.16998-.15997,.26001-.06,.08997-.12,.19-.17999,.28998-.03003,.04999-.06,.10004-.09003,.16003-.02997,.03998-.04999,.07996-.07001,.13-.04999,.07996-.09998,.15997-.14996,.25-.03003,.04999-.05005,.09998-.08002,.14996-.01001,.01001-.02002,.03003-.03003,.04004-.01001,.01996-.01996,.03998-.02997,.04999-.03003,.07001-.07001,.13995-.10999,.20996-.04004,.07001-.08002,.15002-.12006,.23004-.06995,.12-.12994,.23999-.18994,.37-.02002,.02997-.03003,.04999-.05005,.07996-.02997,.07001-.07001,.14001-.09998,.22003-.03998,.08002-.08002,.15997-.12,.23999-.04004,.08002-.09003,.16998-.13,.26001-.03003,.06-.04999,.12-.08002,.16998-.02997,.06-.04999,.10999-.08002,.17004-.01996,.04999-.03998,.09998-.06995,.15997-.07001,.15002-.13,.29999-.20001,.45001-.01001,.02997-.02002,.06-.03003,.07996-.01001,.02002-.01996,.03003-.01996,.04004-.01001,.02002-.02002,.03998-.03003,.06-.02997,.07001-.06,.14001-.08002,.21002-.00995,.00995-.00995,.01996-.00995,.01996-.04004,.10004-.08002,.20001-.12006,.29004-.03998,.08997-.06995,.19-.10999,.27997-.02997,.08002-.06,.15002-.08997,.22998-.03003,.08002-.06,.16003-.09003,.25-.02997,.06-.04999,.12-.07001,.18005-.02997,.07996-.06,.15997-.08997,.23999v.01001c-.04004,.12994-.09003,.25995-.13,.38995-.04004,.10004-.07001,.21002-.11005,.31-.03998,.12-.06995,.23999-.10999,.35004-.01001,.04999-.02997,.09998-.04999,.14996-.07001,.26001-.15002,.52002-.21997,.79004-.02002,.07001-.04004,.14996-.06,.21997-.02002,.06-.04004,.12-.05005,.17999-.01996,.08002-.03998,.16003-.06,.23999-.01996,.08002-.03998,.16003-.06,.24005-.01996,.04999-.02997,.10999-.03998,.15997-.03003,.09998-.04999,.20001-.07001,.29999-.03003,.14001-.06,.28003-.09003,.42004-.01996,.06-.02997,.12-.03998,.17999-.02002,.10999-.04999,.22998-.07001,.33997-.01001,.07001-.02997,.15002-.03998,.22003l-.03003,.14996c-.01996,.10004-.03998,.21002-.04999,.32001-.02002,.10999-.03998,.21002-.06,.32001-.01001,.09998-.02997,.19-.03998,.28998-.01001,.07001-.02002,.14001-.03003,.22003-.02997,.19-.06,.38-.08002,.57001-.00995,.07001-.00995,.13-.01996,.20001-.02002,.10999-.03003,.21997-.04004,.32996-.00995,.11005-.01996,.22003-.02997,.33002-.03003,.34003-.06,.66998-.08002,1v.12c-.01001,.03003-.01001,.07001-.01001,.10999,0,.08002-.00995,.15002-.00995,.23004v.07001c-.01001,.16998-.02002,.33997-.02002,.50995-.01001,.17004-.01001,.33002-.01001,.5v.53003c0,.15997,0,.32001,.01001,.47998v.06c0,.12,.01001,.23004,.01001,.35004,0,.02997,0,.06,.01001,.09998v.21002c.00995,.07001,.00995,.13995,.01996,.19995v.12006c.01001,.15997,.02002,.31995,.03003,.47998,.01996,.16998,.02997,.33997,.04999,.5,0,.08997,.01001,.17999,.02002,.27002,.02997,.26996,.06,.53998,.08997,.81,.02002,.10999,.03003,.21997,.04999,.32996,.01001,.09003,.02002,.17999,.04004,.27002,0,.03003,.01001,.06,.01001,.09003,.06995,.42999,.13995,.85999,.21997,1.28998,.01001,.02002,.01001,.03998,.02002,.06,.01001,.09003,.02997,.17999,.04999,.27002,.01001,.06,.02997,.13,.03998,.19,.04999,.22998,.10004,.45996,.16003,.67999,.01996,.08997,.03998,.16998,.06,.25,.04999,.20001,.09998,.40997,.14996,.60999,.01001,.02002,.02002,.03998,.02002,.06,.03998,.15997,.09003,.31,.13,.46997,.01001,.03003,.02002,.07001,.02997,.10004l.06006,.17999c.00995,.03998,.01996,.07001,.02997,.10999,.03998,.14001,.08002,.28003,.13,.42004,.01001,.01996,.01001,.04999,.02002,.07996,.00995,.03003,.01996,.06,.03998,.10004,.01001,.03998,.02002,.08997,.03998,.13,0,.00995,.01001,.01996,.01001,.02997,.01001,.03998,.03003,.08002,.04004,.13,.02997,.08002,.06,.15997,.08997,.25,.02002,.07001,.04999,.14001,.07001,.21002,.03003,.07996,.06,.15997,.09003,.23999,.02997,.09998,.06995,.19,.09998,.27997,.03998,.11005,.08002,.21002,.13,.32001,.02002,.06,.03998,.12,.07001,.17999,.02997,.08002,.06,.16003,.08997,.23999,.05005,.10004,.09003,.20001,.13,.30005,.04004,.10999,.09003,.20996,.13,.31,.04004,.08997,.08002,.17999,.12,.26001,.04004,.08997,.08002,.17999,.12,.26996,.05005,.10999,.09003,.21002,.14001,.31,.04999,.11005,.09998,.21002,.15002,.31,.02997,.06,.06,.12,.08997,.17999,.03003,.06,.06,.13,.09003,.20001,.03998,.08002,.08997,.16003,.13,.23999,.01001,.02002,.01996,.04004,.02997,.06l.09003,.17004c.01996,.02997,.02997,.07001,.04999,.09998,.01001,.02002,.03003,.04999,.03998,.07001,.04004,.09003,.09003,.16998,.13,.25,.06,.12,.13,.22998,.19,.34003,.04999,.08997,.10004,.16998,.14001,.25,.06,.09998,.12,.19995,.16998,.29999,.06,.09998,.12,.19,.17999,.28998,.05005,.09003,.11005,.17999,.16003,.27002,.02997,.03998,.04999,.08002,.08002,.12,.09998,.15997,.19,.31,.28998,.46002,.02002,.01996,.02997,.03998,.03998,.06,.02002,.02997,.04004,.06,.06,.08997,.06,.10004,.13,.20001,.20001,.29999,.03003,.04004,.06,.09003,.09003,.13,.06,.10004,.13,.19,.19995,.29004,.13,.19,.27002,.38,.40002,.56l.01001,.00995c.02997,.05005,.07001,.10004,.10999,.15002,.10004,.14001,.21002,.28003,.31,.41003,.08002,.09998,.15002,.19995,.23004,.29999,.11066,.13281,.22467,.2735,.33936,.41321-5.12463-5.95087-8.50421-12.84448-10.10938-20.05322-.01001-.02002-.01001-.03003-.01001-.04999-2.27002-10.20001-1.03998-20.97003,3.64001-30.42004,.01996-.02997,.03998-.06995,.04999-.09998,2.34003-4.67999,5.52002-9.02002,9.53998-12.81,6.26001-5.90002,13.75-9.67999,21.60004-11.37,.28998-.06,.57996-.12,.88-.17999,14.82996-2.90002,30.82996,1.59998,42.12,13.29999,.13995,.14001,.26996,.28003,.39996,.41998,.14001,.14001,.27002,.29004,.40002,.42999,22.57001,24.40002,21.94,62.09003-1.13,85.49005Z"/>
    <path class="cls-2" d="M247.05933,124.23535c-.04193-.0498-.0799-.09717-.12061-.14679,.20703,.24042,.39783,.4895,.6106,.72675-.15997-.18994-.32996-.37994-.48999-.57996Z"/>
  </g>
</svg>